<mxfile host="app.diagrams.net" agent="Mozilla/5.0 (Windows NT 10.0; Win64; x64) AppleWebKit/537.36 (KHTML, like Gecko) Chrome/134.0.0.0 YaBrowser/25.4.0.0 Safari/537.36" version="27.1.4">
  <diagram name="Страница — 1" id="91X2aZSLvUdye_5keOuR">
    <mxGraphModel dx="1427" dy="1890" grid="1" gridSize="10" guides="1" tooltips="1" connect="1" arrows="1" fold="1" page="1" pageScale="1" pageWidth="827" pageHeight="1169" math="0" shadow="0">
      <root>
        <mxCell id="0" />
        <mxCell id="1" parent="0" />
        <mxCell id="vWBpz503TdF2dAPc1-_F-3" value="" style="group" parent="1" vertex="1" connectable="0">
          <mxGeometry x="164" y="260" width="250" height="160" as="geometry" />
        </mxCell>
        <mxCell id="vWBpz503TdF2dAPc1-_F-1" value="&lt;font style=&quot;font-size: 16px;&quot;&gt;Анализ исходного отношения&lt;/font&gt;" style="rounded=0;whiteSpace=wrap;html=1;" parent="vWBpz503TdF2dAPc1-_F-3" vertex="1">
          <mxGeometry width="250" height="160" as="geometry" />
        </mxCell>
        <mxCell id="vWBpz503TdF2dAPc1-_F-2" value="A1" style="text;html=1;align=center;verticalAlign=middle;whiteSpace=wrap;rounded=0;" parent="vWBpz503TdF2dAPc1-_F-3" vertex="1">
          <mxGeometry x="211" y="130" width="39" height="30" as="geometry" />
        </mxCell>
        <mxCell id="vWBpz503TdF2dAPc1-_F-4" value="" style="endArrow=classic;html=1;rounded=0;fontSize=12;startSize=8;endSize=8;curved=1;entryX=0.003;entryY=0.178;entryDx=0;entryDy=0;entryPerimeter=0;" parent="1" edge="1">
          <mxGeometry width="50" height="50" relative="1" as="geometry">
            <mxPoint x="19.25" y="280" as="sourcePoint" />
            <mxPoint x="164" y="280.48" as="targetPoint" />
          </mxGeometry>
        </mxCell>
        <mxCell id="vWBpz503TdF2dAPc1-_F-5" value="Название отношения" style="edgeLabel;html=1;align=center;verticalAlign=middle;resizable=0;points=[];fontSize=12;" parent="vWBpz503TdF2dAPc1-_F-4" vertex="1" connectable="0">
          <mxGeometry x="0.0058" y="1" relative="1" as="geometry">
            <mxPoint x="-3" y="-10" as="offset" />
          </mxGeometry>
        </mxCell>
        <mxCell id="vWBpz503TdF2dAPc1-_F-6" value="" style="endArrow=classic;html=1;rounded=0;fontSize=12;startSize=8;endSize=8;curved=1;entryX=0.003;entryY=0.178;entryDx=0;entryDy=0;entryPerimeter=0;" parent="1" edge="1">
          <mxGeometry width="50" height="50" relative="1" as="geometry">
            <mxPoint x="19" y="339.5" as="sourcePoint" />
            <mxPoint x="164" y="339.5" as="targetPoint" />
          </mxGeometry>
        </mxCell>
        <mxCell id="vWBpz503TdF2dAPc1-_F-7" value="Список атрибутов" style="edgeLabel;html=1;align=center;verticalAlign=middle;resizable=0;points=[];fontSize=12;" parent="vWBpz503TdF2dAPc1-_F-6" vertex="1" connectable="0">
          <mxGeometry x="0.0058" y="1" relative="1" as="geometry">
            <mxPoint x="-3" y="-10" as="offset" />
          </mxGeometry>
        </mxCell>
        <mxCell id="vWBpz503TdF2dAPc1-_F-8" value="" style="endArrow=classic;html=1;rounded=0;fontSize=12;startSize=8;endSize=8;curved=1;entryX=0;entryY=0.75;entryDx=0;entryDy=0;" parent="1" edge="1">
          <mxGeometry width="50" height="50" relative="1" as="geometry">
            <mxPoint x="19" y="399" as="sourcePoint" />
            <mxPoint x="164" y="399" as="targetPoint" />
          </mxGeometry>
        </mxCell>
        <mxCell id="vWBpz503TdF2dAPc1-_F-9" value="Список функциональных&lt;div&gt;зависимостей&lt;/div&gt;" style="edgeLabel;html=1;align=center;verticalAlign=middle;resizable=0;points=[];fontSize=12;" parent="vWBpz503TdF2dAPc1-_F-8" vertex="1" connectable="0">
          <mxGeometry x="0.0058" y="1" relative="1" as="geometry">
            <mxPoint x="-2" y="-18" as="offset" />
          </mxGeometry>
        </mxCell>
        <mxCell id="vWBpz503TdF2dAPc1-_F-16" value="" style="endArrow=classic;html=1;rounded=0;fontSize=12;startSize=8;endSize=8;entryX=0.225;entryY=-0.002;entryDx=0;entryDy=0;entryPerimeter=0;edgeStyle=orthogonalEdgeStyle;" parent="1" target="vWBpz503TdF2dAPc1-_F-1" edge="1">
          <mxGeometry width="50" height="50" relative="1" as="geometry">
            <mxPoint x="410" y="150" as="sourcePoint" />
            <mxPoint x="220" y="258" as="targetPoint" />
            <Array as="points">
              <mxPoint x="410" y="170" />
              <mxPoint x="220" y="170" />
            </Array>
          </mxGeometry>
        </mxCell>
        <mxCell id="vWBpz503TdF2dAPc1-_F-17" value="Определения&lt;div&gt;уровней&lt;/div&gt;&lt;div&gt;нормализации&lt;/div&gt;" style="edgeLabel;html=1;align=center;verticalAlign=middle;resizable=0;points=[];fontSize=12;" parent="1" vertex="1" connectable="0">
          <mxGeometry x="408" y="130" as="geometry" />
        </mxCell>
        <mxCell id="vWBpz503TdF2dAPc1-_F-22" value="" style="endArrow=classic;html=1;rounded=0;fontSize=12;startSize=8;endSize=8;entryX=0.225;entryY=-0.002;entryDx=0;entryDy=0;entryPerimeter=0;edgeStyle=orthogonalEdgeStyle;" parent="1" edge="1">
          <mxGeometry width="50" height="50" relative="1" as="geometry">
            <mxPoint x="580" y="150" as="sourcePoint" />
            <mxPoint x="350" y="260" as="targetPoint" />
            <Array as="points">
              <mxPoint x="580" y="220" />
              <mxPoint x="350" y="220" />
            </Array>
          </mxGeometry>
        </mxCell>
        <mxCell id="vWBpz503TdF2dAPc1-_F-23" value="Правила вывода&lt;div&gt;функциональных&lt;/div&gt;&lt;div&gt;зависимостей&lt;/div&gt;" style="edgeLabel;html=1;align=center;verticalAlign=middle;resizable=0;points=[];fontSize=12;" parent="1" vertex="1" connectable="0">
          <mxGeometry x="580" y="130" as="geometry" />
        </mxCell>
        <mxCell id="vWBpz503TdF2dAPc1-_F-25" value="ЭВМ" style="edgeLabel;html=1;align=center;verticalAlign=middle;resizable=0;points=[];fontSize=12;" parent="1" vertex="1" connectable="0">
          <mxGeometry x="500" y="690" as="geometry" />
        </mxCell>
        <mxCell id="KOWnwJhqXFV8mifwwQGD-3" value="" style="group" vertex="1" connectable="0" parent="1">
          <mxGeometry x="530" y="400" width="250" height="160" as="geometry" />
        </mxCell>
        <mxCell id="KOWnwJhqXFV8mifwwQGD-4" value="&lt;span style=&quot;font-size: 16px;&quot;&gt;Нормализация отношения&lt;/span&gt;" style="rounded=0;whiteSpace=wrap;html=1;" vertex="1" parent="KOWnwJhqXFV8mifwwQGD-3">
          <mxGeometry width="250" height="160" as="geometry" />
        </mxCell>
        <mxCell id="KOWnwJhqXFV8mifwwQGD-5" value="A2" style="text;html=1;align=center;verticalAlign=middle;whiteSpace=wrap;rounded=0;" vertex="1" parent="KOWnwJhqXFV8mifwwQGD-3">
          <mxGeometry x="212" y="130" width="39" height="30" as="geometry" />
        </mxCell>
        <mxCell id="KOWnwJhqXFV8mifwwQGD-6" style="edgeStyle=orthogonalEdgeStyle;rounded=0;orthogonalLoop=1;jettySize=auto;html=1;" edge="1" parent="1">
          <mxGeometry relative="1" as="geometry">
            <mxPoint x="414" y="268" as="sourcePoint" />
            <mxPoint x="530" y="408" as="targetPoint" />
            <Array as="points">
              <mxPoint x="470" y="268" />
              <mxPoint x="470" y="408" />
              <mxPoint x="530" y="408" />
            </Array>
          </mxGeometry>
        </mxCell>
        <mxCell id="KOWnwJhqXFV8mifwwQGD-7" value="" style="group" vertex="1" connectable="0" parent="1">
          <mxGeometry x="900" y="505" width="250" height="160" as="geometry" />
        </mxCell>
        <mxCell id="KOWnwJhqXFV8mifwwQGD-28" style="edgeStyle=orthogonalEdgeStyle;rounded=0;orthogonalLoop=1;jettySize=auto;html=1;" edge="1" parent="KOWnwJhqXFV8mifwwQGD-7" source="KOWnwJhqXFV8mifwwQGD-8">
          <mxGeometry relative="1" as="geometry">
            <mxPoint x="370.0000000000002" y="79.99999999999977" as="targetPoint" />
          </mxGeometry>
        </mxCell>
        <mxCell id="KOWnwJhqXFV8mifwwQGD-8" value="&lt;span style=&quot;font-size: 16px;&quot;&gt;Замеры характеристик&lt;/span&gt;&lt;div&gt;&lt;span style=&quot;font-size: 16px;&quot;&gt;нормализованных схем&lt;/span&gt;&lt;/div&gt;" style="rounded=0;whiteSpace=wrap;html=1;" vertex="1" parent="KOWnwJhqXFV8mifwwQGD-7">
          <mxGeometry width="250" height="160" as="geometry" />
        </mxCell>
        <mxCell id="KOWnwJhqXFV8mifwwQGD-9" value="А3" style="text;html=1;align=center;verticalAlign=middle;whiteSpace=wrap;rounded=0;" vertex="1" parent="KOWnwJhqXFV8mifwwQGD-7">
          <mxGeometry x="211" y="130" width="39" height="30" as="geometry" />
        </mxCell>
        <mxCell id="KOWnwJhqXFV8mifwwQGD-10" style="edgeStyle=orthogonalEdgeStyle;rounded=0;orthogonalLoop=1;jettySize=auto;html=1;entryX=0;entryY=0.5;entryDx=0;entryDy=0;" edge="1" parent="1" source="KOWnwJhqXFV8mifwwQGD-4" target="KOWnwJhqXFV8mifwwQGD-8">
          <mxGeometry relative="1" as="geometry" />
        </mxCell>
        <mxCell id="KOWnwJhqXFV8mifwwQGD-11" value="Нормализованные&lt;div&gt;отношенияя&lt;/div&gt;" style="edgeLabel;html=1;align=center;verticalAlign=middle;resizable=0;points=[];fontSize=12;" vertex="1" connectable="0" parent="1">
          <mxGeometry x="840" y="460" as="geometry" />
        </mxCell>
        <mxCell id="KOWnwJhqXFV8mifwwQGD-13" value="" style="endArrow=classic;html=1;rounded=0;fontSize=12;startSize=8;endSize=8;entryX=0.812;entryY=-0.006;entryDx=0;entryDy=0;edgeStyle=orthogonalEdgeStyle;entryPerimeter=0;" edge="1" parent="1" target="KOWnwJhqXFV8mifwwQGD-4">
          <mxGeometry width="50" height="50" relative="1" as="geometry">
            <mxPoint x="580" y="160" as="sourcePoint" />
            <mxPoint x="710" y="410" as="targetPoint" />
            <Array as="points">
              <mxPoint x="580" y="220" />
              <mxPoint x="733" y="220" />
            </Array>
          </mxGeometry>
        </mxCell>
        <mxCell id="KOWnwJhqXFV8mifwwQGD-15" value="" style="endArrow=classic;html=1;rounded=0;fontSize=12;startSize=8;endSize=8;edgeStyle=orthogonalEdgeStyle;entryX=0.25;entryY=0;entryDx=0;entryDy=0;" edge="1" parent="1" target="KOWnwJhqXFV8mifwwQGD-4">
          <mxGeometry width="50" height="50" relative="1" as="geometry">
            <mxPoint x="410" y="160" as="sourcePoint" />
            <mxPoint x="630" y="440" as="targetPoint" />
            <Array as="points">
              <mxPoint x="410" y="170" />
              <mxPoint x="470" y="170" />
              <mxPoint x="470" y="260" />
              <mxPoint x="593" y="260" />
            </Array>
          </mxGeometry>
        </mxCell>
        <mxCell id="KOWnwJhqXFV8mifwwQGD-16" value="" style="endArrow=classic;html=1;rounded=0;fontSize=12;startSize=8;endSize=8;edgeStyle=orthogonalEdgeStyle;entryX=0.5;entryY=1;entryDx=0;entryDy=0;" edge="1" parent="1" target="vWBpz503TdF2dAPc1-_F-1">
          <mxGeometry width="50" height="50" relative="1" as="geometry">
            <mxPoint x="500" y="630" as="sourcePoint" />
            <mxPoint x="320" y="450" as="targetPoint" />
            <Array as="points">
              <mxPoint x="289" y="630" />
            </Array>
          </mxGeometry>
        </mxCell>
        <mxCell id="KOWnwJhqXFV8mifwwQGD-17" value="" style="endArrow=classic;html=1;rounded=0;fontSize=12;startSize=8;endSize=8;edgeStyle=orthogonalEdgeStyle;entryX=0.5;entryY=1;entryDx=0;entryDy=0;" edge="1" parent="1" target="KOWnwJhqXFV8mifwwQGD-4">
          <mxGeometry width="50" height="50" relative="1" as="geometry">
            <mxPoint x="500" y="680" as="sourcePoint" />
            <mxPoint x="570" y="710" as="targetPoint" />
            <Array as="points">
              <mxPoint x="500" y="630" />
              <mxPoint x="655" y="630" />
            </Array>
          </mxGeometry>
        </mxCell>
        <mxCell id="KOWnwJhqXFV8mifwwQGD-18" value="" style="endArrow=classic;html=1;rounded=0;fontSize=12;startSize=8;endSize=8;edgeStyle=orthogonalEdgeStyle;" edge="1" parent="1">
          <mxGeometry width="50" height="50" relative="1" as="geometry">
            <mxPoint x="497.77781168619794" y="630" as="sourcePoint" />
            <mxPoint x="1010" y="666" as="targetPoint" />
            <Array as="points">
              <mxPoint x="570" y="630" />
              <mxPoint x="570" y="730" />
              <mxPoint x="1010" y="730" />
              <mxPoint x="1010" y="666" />
            </Array>
          </mxGeometry>
        </mxCell>
        <mxCell id="KOWnwJhqXFV8mifwwQGD-19" value="СУБД" style="edgeLabel;html=1;align=center;verticalAlign=middle;resizable=0;points=[];fontSize=12;" vertex="1" connectable="0" parent="1">
          <mxGeometry x="1090" y="760" as="geometry" />
        </mxCell>
        <mxCell id="KOWnwJhqXFV8mifwwQGD-20" value="" style="endArrow=classic;html=1;rounded=0;fontSize=12;startSize=8;endSize=8;edgeStyle=orthogonalEdgeStyle;entryX=0.75;entryY=1;entryDx=0;entryDy=0;" edge="1" parent="1" target="KOWnwJhqXFV8mifwwQGD-8">
          <mxGeometry width="50" height="50" relative="1" as="geometry">
            <mxPoint x="1088" y="750" as="sourcePoint" />
            <mxPoint x="1120" y="700" as="targetPoint" />
            <Array as="points">
              <mxPoint x="1088" y="740" />
            </Array>
          </mxGeometry>
        </mxCell>
        <mxCell id="KOWnwJhqXFV8mifwwQGD-21" value="Нарушения&lt;div&gt;нормализации&lt;/div&gt;" style="edgeLabel;html=1;align=center;verticalAlign=middle;resizable=0;points=[];fontSize=12;" vertex="1" connectable="0" parent="1">
          <mxGeometry x="485" y="427" as="geometry" />
        </mxCell>
        <mxCell id="KOWnwJhqXFV8mifwwQGD-22" style="edgeStyle=orthogonalEdgeStyle;rounded=0;orthogonalLoop=1;jettySize=auto;html=1;exitX=1;exitY=0.5;exitDx=0;exitDy=0;" edge="1" parent="1" source="vWBpz503TdF2dAPc1-_F-1">
          <mxGeometry relative="1" as="geometry">
            <mxPoint x="531" y="450" as="targetPoint" />
            <Array as="points">
              <mxPoint x="440" y="340" />
              <mxPoint x="440" y="450" />
              <mxPoint x="531" y="450" />
            </Array>
          </mxGeometry>
        </mxCell>
        <mxCell id="KOWnwJhqXFV8mifwwQGD-23" value="Текущая&lt;div&gt;нормальная&lt;div&gt;&amp;nbsp;форма&lt;/div&gt;&lt;/div&gt;" style="edgeLabel;html=1;align=center;verticalAlign=middle;resizable=0;points=[];fontSize=12;" vertex="1" connectable="0" parent="1">
          <mxGeometry x="474" y="460" as="geometry">
            <mxPoint x="6" y="14" as="offset" />
          </mxGeometry>
        </mxCell>
        <mxCell id="KOWnwJhqXFV8mifwwQGD-24" style="edgeStyle=orthogonalEdgeStyle;rounded=0;orthogonalLoop=1;jettySize=auto;html=1;exitX=1;exitY=0;exitDx=0;exitDy=0;" edge="1" parent="1" source="vWBpz503TdF2dAPc1-_F-2">
          <mxGeometry relative="1" as="geometry">
            <mxPoint x="530" y="500" as="targetPoint" />
            <Array as="points">
              <mxPoint x="414" y="370" />
              <mxPoint x="420" y="370" />
              <mxPoint x="420" y="500" />
              <mxPoint x="530" y="500" />
            </Array>
          </mxGeometry>
        </mxCell>
        <mxCell id="KOWnwJhqXFV8mifwwQGD-25" value="Отношение с ключами" style="edgeLabel;html=1;align=center;verticalAlign=middle;resizable=0;points=[];fontSize=12;" vertex="1" connectable="0" parent="1">
          <mxGeometry x="457" y="497" as="geometry">
            <mxPoint x="6" y="14" as="offset" />
          </mxGeometry>
        </mxCell>
        <mxCell id="KOWnwJhqXFV8mifwwQGD-26" value="" style="endArrow=classic;html=1;rounded=0;entryX=0.003;entryY=0.86;entryDx=0;entryDy=0;entryPerimeter=0;" edge="1" parent="1" target="KOWnwJhqXFV8mifwwQGD-4">
          <mxGeometry width="50" height="50" relative="1" as="geometry">
            <mxPoint x="310" y="540" as="sourcePoint" />
            <mxPoint x="550" y="390" as="targetPoint" />
          </mxGeometry>
        </mxCell>
        <mxCell id="KOWnwJhqXFV8mifwwQGD-27" value="Целевой уровень&lt;div&gt;нормализации&lt;/div&gt;" style="edgeLabel;html=1;align=center;verticalAlign=middle;resizable=0;points=[];fontSize=12;" vertex="1" connectable="0" parent="1">
          <mxGeometry x="457" y="540" as="geometry">
            <mxPoint x="6" y="14" as="offset" />
          </mxGeometry>
        </mxCell>
        <mxCell id="KOWnwJhqXFV8mifwwQGD-31" value="Замеры для&amp;nbsp;&lt;div&gt;нормализованных&lt;div&gt;&amp;nbsp;отношений&lt;/div&gt;&lt;/div&gt;" style="edgeLabel;html=1;align=center;verticalAlign=middle;resizable=0;points=[];fontSize=12;" vertex="1" connectable="0" parent="1">
          <mxGeometry x="1210" y="560" as="geometry" />
        </mxCell>
      </root>
    </mxGraphModel>
  </diagram>
</mxfile>
